<svg xmlns="http://www.w3.org/2000/svg" viewBox="0 0 15 20" id="bus_station">
  <g fill="none">
    <path d="M-7-5h30v30H-7z"></path>
    <path fill="#5717D7" d="M13.335 0H1.665C.701.046-.042.816.001 1.724v14.138l.003.015c.001.039.01.077.024.113l.869 1.885c.106.24.352.397.627.4h11.95a.693.693 0 0 0 .628-.4L14.968 16a.358.358 0 0 0 .027-.124c0-.005.003-.009.003-.014V1.724c.043-.908-.7-1.678-1.663-1.724zm-9.31 19.655c0 .19-.164.345-.366.345h-.731c-.202 0-.366-.154-.366-.345v-1.38h1.463v1.38zm8.413 0c0 .19-.164.345-.366.345h-.731c-.202 0-.366-.154-.366-.345v-1.38h1.463v1.38zm1-2.069H1.562l-.636-1.38h13.149l-.637 1.38zm-7.584-2.069v-.69c0-.19.164-.344.366-.344h2.56c.202 0 .366.154.366.345v.69H5.854zm8.413-13.793v13.793h-4.39v-.69c0-.57-.491-1.033-1.097-1.034H6.22c-.606 0-1.097.464-1.098 1.035v.69H.733V1.723c-.041-.527.373-.987.931-1.034h11.671c.558.047.973.507.932 1.034z"></path>
    <path fill="#FFF" stroke="#5717D7" stroke-width=".7" d="M12.745 2.857c0 .237-.162.428-.363.429H2.564c-.201 0-.364-.192-.364-.429V2.43c0-.237.163-.429.364-.429h9.818c.2 0 .363.192.363.429v.428z"></path>
    <path fill="#5717D7" d="M3 12a1 1 0 1 0 0 2 1 1 0 0 0 0-2zm0 1.5a.5.5 0 1 1 0-1 .5.5 0 0 1 0 1zm9-1.5a1 1 0 1 0 0 2 1 1 0 0 0 0-2zm0 1.5a.5.5 0 1 1 0-1 .5.5 0 0 1 0 1z"></path>
    <path fill="#FFD731" stroke="#5717D7" stroke-width=".7" d="M12.873 10.1c0 .166-.163.3-.364.3H2.691c-.2 0-.363-.134-.364-.3V5.9c0-.166.163-.3.364-.3h9.818c.2 0 .364.134.364.3v4.2z"></path>
  </g>
</svg>