<svg xmlns="http://www.w3.org/2000/svg" viewBox="0 0 22 22" id="shopping_mall">
  <g fill="none" fill-rule="evenodd">
    <path fill="#5E23DC" fill-rule="nonzero" d="M8.354 18.658c-.92 0-1.67.75-1.67 1.671S7.434 22 8.354 22c.922 0 1.671-.75 1.671-1.67 0-.922-.75-1.672-1.67-1.672zm0 2.463a.792.792 0 0 1 0-1.583.792.792 0 0 1 0 1.583zm7.798-2.463c-.921 0-1.671.75-1.671 1.671S15.231 22 16.151 22c.922 0 1.672-.75 1.672-1.67 0-.922-.75-1.672-1.671-1.672zm0 2.463a.792.792 0 0 1 0-1.583.792.792 0 0 1 0 1.583z"></path>
    <path fill="#5E23DC" d="M19.983 11.474a.428.428 0 0 0-.501.343l-.621 3.267a.43.43 0 0 1-.42.351H6.108L4.434 8.06h4.395a.43.43 0 0 0 .427-.433.43.43 0 0 0-.427-.433H4.237l-.455-2.009a1.28 1.28 0 0 0-1.25-1.008H.427A.43.43 0 0 0 0 4.61c0 .24.191.433.427.433h2.105c.2 0 .372.138.417.336l2.874 12.665a.429.429 0 0 0 .416.336h10.902a.43.43 0 0 0 .427-.433.43.43 0 0 0-.427-.433H6.58L6.304 16.3h12.137a1.29 1.29 0 0 0 1.26-1.053l.62-3.267a.433.433 0 0 0-.338-.507z"></path>
    <path fill="#FFDC00" fill-rule="nonzero" d="M21.103 5.345l-.316.514c-.17.277-.21.613-.112.921l.186.577a.25.25 0 0 1-.111.293l-.513.305a1.11 1.11 0 0 0-.528.767l-.1.593a.25.25 0 0 1-.236.209l-.588.03c-.328.015-.63.175-.828.436l-.359.472a.253.253 0 0 1-.306.075l-.532-.248a1.1 1.1 0 0 0-.938 0l-.532.248a.253.253 0 0 1-.306-.075l-.359-.472c-.198-.261-.5-.42-.828-.437l-.588-.03a.25.25 0 0 1-.235-.208l-.1-.593a1.108 1.108 0 0 0-.528-.767l-.514-.305a.25.25 0 0 1-.11-.293l.185-.577c.1-.309.059-.644-.111-.92l-.317-.516a.25.25 0 0 1 .038-.31l.428-.422c.231-.229.351-.545.328-.87l-.043-.602a.25.25 0 0 1 .178-.259l.567-.17c.313-.095.568-.322.698-.622l.237-.548a.253.253 0 0 1 .28-.146l.575.112c.322.064.654-.018.91-.225l.458-.37a.253.253 0 0 1 .316 0l.458.37c.256.207.588.289.91.226l.576-.113a.252.252 0 0 1 .279.146l.237.548c.13.3.385.527.698.621l.567.171a.25.25 0 0 1 .178.259l-.043.603c-.023.324.097.64.328.869l.429.422c.084.082.1.21.037.31z"></path>
    <path fill="#5E23DC" fill-rule="nonzero" d="M21.834 5.794a1.104 1.104 0 0 0-.166-1.371L21.239 4a.251.251 0 0 1-.074-.197l.043-.602a1.103 1.103 0 0 0-.786-1.141l-.567-.171a.251.251 0 0 1-.158-.141l-.238-.548a1.116 1.116 0 0 0-1.231-.647l-.576.113a.25.25 0 0 1-.206-.051l-.458-.37a1.115 1.115 0 0 0-1.394 0l-.458.37a.25.25 0 0 1-.206.05l-.576-.112a1.116 1.116 0 0 0-1.23.647l-.238.548a.25.25 0 0 1-.158.14l-.568.172c-.5.15-.823.62-.786 1.14l.043.603a.251.251 0 0 1-.074.197l-.429.422c-.37.365-.438.93-.166 1.372l.317.515a.251.251 0 0 1 .025.209l-.185.576c-.16.496.042 1.028.49 1.294l.513.305a.25.25 0 0 1 .12.174l.1.592c.088.517.515.896 1.039.922l.588.03a.25.25 0 0 1 .187.098l.359.472a1.115 1.115 0 0 0 1.352.334l.532-.248a.25.25 0 0 1 .212 0l.532.248c.47.22 1.038.079 1.352-.334l.359-.472a.25.25 0 0 1 .187-.099l.588-.03c.524-.025.95-.404 1.039-.92l.1-.594a.251.251 0 0 1 .12-.173l.514-.305c.447-.266.649-.798.49-1.294l-.186-.576a.251.251 0 0 1 .025-.209l.317-.515zm-.73-.45l-.317.515c-.17.277-.21.613-.112.921l.186.577a.25.25 0 0 1-.111.293l-.513.305a1.11 1.11 0 0 0-.528.767l-.1.593a.25.25 0 0 1-.236.209l-.588.03c-.328.015-.63.175-.828.436l-.359.472a.253.253 0 0 1-.306.075l-.532-.248a1.1 1.1 0 0 0-.938 0l-.532.248a.253.253 0 0 1-.306-.075l-.359-.472c-.198-.261-.5-.42-.828-.437l-.588-.03a.25.25 0 0 1-.235-.208l-.1-.593a1.108 1.108 0 0 0-.528-.767l-.514-.305a.25.25 0 0 1-.11-.293l.185-.577c.1-.309.059-.644-.111-.92l-.317-.516a.25.25 0 0 1 .038-.31l.428-.422c.231-.229.351-.545.328-.87l-.043-.602a.25.25 0 0 1 .178-.259l.567-.17c.313-.095.568-.322.698-.622l.237-.548a.253.253 0 0 1 .28-.146l.575.112c.322.064.654-.018.91-.225l.458-.37a.253.253 0 0 1 .316 0l.458.37c.256.207.588.289.91.226l.576-.113a.252.252 0 0 1 .279.146l.237.548c.13.3.385.527.698.621l.567.171a.25.25 0 0 1 .178.259l-.043.603c-.023.324.097.64.328.869l.429.422c.084.082.1.21.037.31z"></path>
    <path fill="#5E23DC" d="M17.331 3.677a.411.411 0 0 0-.572.165l-1.945 3.583a.445.445 0 0 0 .159.594.405.405 0 0 0 .206.057c.146 0 .288-.08.365-.222l1.946-3.583a.446.446 0 0 0-.159-.594z"></path>
    <path fill="#5E23DC" fill-rule="nonzero" d="M17.544 6.127a1.115 1.115 0 0 0 0 2.228 1.115 1.115 0 0 0 0-2.228zm0 1.37a.258.258 0 1 1 0-.514.258.258 0 0 1 0 .515zm-2.506-4.434a1.115 1.115 0 0 0 0 2.228 1.115 1.115 0 0 0 0-2.228zm0 1.372a.258.258 0 1 1 0-.516.258.258 0 0 1 0 .516z"></path>
  </g>
</svg>